<?xml version="1.0" encoding="utf-8"?>
<!-- Svg Vector Icons : http://www.onlinewebfonts.com/icon -->
<!DOCTYPE svg PUBLIC "-//W3C//DTD SVG 1.1//EN" "http://www.w3.org/Graphics/SVG/1.1/DTD/svg11.dtd">
<svg version="1.1" xmlns="http://www.w3.org/2000/svg" xmlns:xlink="http://www.w3.org/1999/xlink" x="0px" y="0px" viewBox="0 0 256 256" enable-background="new 0 0 256 256" xml:space="preserve">
<metadata> Svg Vector Icons : http://www.onlinewebfonts.com/icon </metadata>
<g><g><path fill="#000000" d="M147.6,133.8c18.1-6.3,31-23.5,31-43.7c0-25.6-20.8-46.4-46.4-46.4c-25.6,0-46.4,20.8-46.4,46.4c0,20.2,13,37.4,31,43.7c-34.5,7.1-60.5,37.7-60.5,74.3c0,1.4,0.1,2.8,0.2,4.2h5.5c-0.1-1.4-0.2-2.8-0.2-4.2c0-38.8,31.5-70.3,70.3-70.3c38.8,0,70.3,31.5,70.3,70.3c0,1.4-0.1,2.8-0.2,4.2h5.5c0.1-1.4,0.2-2.8,0.2-4.2C208.1,171.4,182.1,140.9,147.6,133.8L147.6,133.8z M92.3,90.1c0-22,17.8-39.9,39.9-39.9c22,0,39.9,17.8,39.9,39.9c0,22-17.8,39.9-39.9,39.9C110.2,129.9,92.3,112.1,92.3,90.1L92.3,90.1z M233.4,10H22.6c-7,0-12.6,5.7-12.6,12.6v210.7c0,7,5.7,12.6,12.6,12.6h210.7c7,0,12.6-5.7,12.6-12.6V22.6C246,15.7,240.3,10,233.4,10L233.4,10z M241.3,228.6c0,7-5.7,12.6-12.6,12.6H27.4c-7,0-12.6-5.7-12.6-12.6V27.4c0-7,5.7-12.6,12.6-12.6h201.3c7,0,12.6,5.7,12.6,12.6V228.6L241.3,228.6z"/></g></g>
</svg>